<svg width="100%" height="100%" viewBox="0 0 96 96" version="1.1" xmlns="http://www.w3.org/2000/svg" xmlns:xlink="http://www.w3.org/1999/xlink" xml:space="preserve" xmlns:serif="http://www.serif.com/" style="fill-rule:evenodd;clip-rule:evenodd;stroke-linejoin:round;stroke-miterlimit:2;"><g><path d="M70.144,53.544c8.319,0 15.074,6.755 15.074,15.075c0,8.32 -6.755,15.074 -15.074,15.074c-8.32,0 -15.075,-6.754 -15.075,-15.074c-0,-8.32 6.755,-15.075 15.075,-15.075Zm-1.63,17.227l4.921,4.92c0.878,0.878 2.304,0.878 3.182,0c0.878,-0.878 0.878,-2.304 -0,-3.182l-4.262,-4.261l0,-6.098c0,-1.243 -1.007,-2.25 -2.25,-2.25c-1.242,-0 -2.25,1.007 -2.25,2.25l0,7.03c0,0.576 0.22,1.152 0.659,1.591Zm-17.913,1.242l-0,-6.12l-30.553,0c-2.163,0 -3.919,-1.756 -3.919,-3.919l-0,-30.459c-0,-2.163 1.756,-3.92 3.919,-3.92l43.584,0c2.163,0 3.919,1.757 3.919,3.92l0,17.418l6.129,0l0,-28.607c0,-4.595 -3.73,-8.326 -8.326,-8.326l-47.028,0c-4.595,0 -8.326,3.731 -8.326,8.326l-0,43.361c-0,4.595 3.731,8.326 8.326,8.326l32.275,0Zm-11.536,-16.673c-0,-0.903 -0.734,-1.637 -1.637,-1.637l-3.274,0c-0.904,0 -1.637,0.734 -1.637,1.637l-0,3.274c-0,0.904 0.733,1.637 1.637,1.637l3.274,0c0.903,0 1.637,-0.733 1.637,-1.637l-0,-3.274Zm12.057,0c-0,-0.903 -0.734,-1.637 -1.637,-1.637l-3.274,0c-0.904,0 -1.637,0.734 -1.637,1.637l-0,3.274c-0,0.904 0.733,1.637 1.637,1.637l3.274,0c0.903,0 1.637,-0.733 1.637,-1.637l-0,-3.274Zm-24.114,0c-0,-0.903 -0.734,-1.637 -1.637,-1.637l-3.274,0c-0.904,0 -1.637,0.734 -1.637,1.637l-0,3.274c-0,0.904 0.733,1.637 1.637,1.637l3.274,0c0.903,0 1.637,-0.733 1.637,-1.637l-0,-3.274Zm-0,-10.438c-0,-0.903 -0.734,-1.637 -1.637,-1.637l-3.274,0c-0.904,0 -1.637,0.734 -1.637,1.637l-0,3.274c-0,0.903 0.733,1.637 1.637,1.637l3.274,-0c0.903,-0 1.637,-0.734 1.637,-1.637l-0,-3.274Zm24.114,0c-0,-0.903 -0.734,-1.637 -1.637,-1.637l-3.274,0c-0.904,0 -1.637,0.734 -1.637,1.637l-0,3.274c-0,0.903 0.733,1.637 1.637,1.637l3.274,-0c0.903,-0 1.637,-0.734 1.637,-1.637l-0,-3.274Zm-12.057,0c-0,-0.903 -0.734,-1.637 -1.637,-1.637l-3.274,0c-0.904,0 -1.637,0.734 -1.637,1.637l-0,3.274c-0,0.903 0.733,1.637 1.637,1.637l3.274,-0c0.903,-0 1.637,-0.734 1.637,-1.637l-0,-3.274Zm24.114,0c-0,-0.903 -0.734,-1.637 -1.637,-1.637l-3.274,0c-0.903,0 -1.637,0.734 -1.637,1.637l0,3.274c0,0.903 0.734,1.637 1.637,1.637l3.274,-0c0.903,-0 1.637,-0.734 1.637,-1.637l-0,-3.274Zm-24.114,-10.438c-0,-0.904 -0.734,-1.637 -1.637,-1.637l-3.274,-0c-0.904,-0 -1.637,0.733 -1.637,1.637l-0,3.274c-0,0.903 0.733,1.637 1.637,1.637l3.274,-0c0.903,-0 1.637,-0.734 1.637,-1.637l-0,-3.274Zm12.057,-0c-0,-0.904 -0.734,-1.637 -1.637,-1.637l-3.274,-0c-0.904,-0 -1.637,0.733 -1.637,1.637l-0,3.274c-0,0.903 0.733,1.637 1.637,1.637l3.274,-0c0.903,-0 1.637,-0.734 1.637,-1.637l-0,-3.274Zm12.057,-0c-0,-0.904 -0.734,-1.637 -1.637,-1.637l-3.274,-0c-0.903,-0 -1.637,0.733 -1.637,1.637l0,3.274c0,0.903 0.734,1.637 1.637,1.637l3.274,-0c0.903,-0 1.637,-0.734 1.637,-1.637l-0,-3.274Z"/></g></svg>