<svg width="100%" height="100%" viewBox="0 0 89 21" version="1.1" xmlns="http://www.w3.org/2000/svg" xmlns:xlink="http://www.w3.org/1999/xlink" xml:space="preserve" xmlns:serif="http://www.serif.com/" style="fill-rule:evenodd;clip-rule:evenodd;stroke-linejoin:round;stroke-miterlimit:2;"><g><g><path d="M30.131,3.082c-0,-1.283 -1.042,-2.326 -2.326,-2.326l-24.673,0c-1.284,0 -2.326,1.043 -2.326,2.326l-0,14.73c-0,1.284 1.042,2.326 2.326,2.326l24.673,0c1.284,0 2.326,-1.042 2.326,-2.326l-0,-14.73Zm-2.007,12.118c0,-0.388 -0.315,-0.703 -0.703,-0.703l-2.665,-0c-0.388,-0 -0.703,0.315 -0.703,0.703l0,1.406c0,0.388 0.315,0.703 0.703,0.703l2.665,0c0.388,0 0.703,-0.315 0.703,-0.703l0,-1.406Zm-21.22,-0c-0,-0.388 -0.315,-0.703 -0.703,-0.703l-2.665,-0c-0.388,-0 -0.703,0.315 -0.703,0.703l-0,1.406c-0,0.388 0.315,0.703 0.703,0.703l2.665,0c0.388,0 0.703,-0.315 0.703,-0.703l-0,-1.406Zm2.622,0.067c-0.259,0.251 -0.34,0.634 -0.205,0.969c0.136,0.334 0.46,0.553 0.821,0.553l4.524,-0c0.313,-0 0.603,-0.165 0.762,-0.434l6.128,-10.329c0.227,-0.382 0.136,-0.872 -0.213,-1.147c-0.348,-0.275 -0.846,-0.25 -1.165,0.059l-10.652,10.329Zm18.598,-5.523c0,-0.388 -0.315,-0.703 -0.703,-0.703l-2.665,0c-0.388,0 -0.703,0.315 -0.703,0.703l0,1.406c0,0.388 0.315,0.703 0.703,0.703l2.665,0c0.388,0 0.703,-0.315 0.703,-0.703l0,-1.406Zm-21.22,0c-0,-0.388 -0.315,-0.703 -0.703,-0.703l-2.665,0c-0.388,0 -0.703,0.315 -0.703,0.703l-0,1.406c-0,0.388 0.315,0.703 0.703,0.703l2.665,0c0.388,0 0.703,-0.315 0.703,-0.703l-0,-1.406Zm-0.021,-5.455c0,-0.388 -0.315,-0.703 -0.703,-0.703l-2.665,-0c-0.388,-0 -0.703,0.315 -0.703,0.703l0,1.406c0,0.388 0.315,0.703 0.703,0.703l2.665,-0c0.388,-0 0.703,-0.315 0.703,-0.703l0,-1.406Zm21.221,-0c-0,-0.388 -0.315,-0.703 -0.703,-0.703l-2.665,-0c-0.388,-0 -0.703,0.315 -0.703,0.703l-0,1.406c-0,0.388 0.315,0.703 0.703,0.703l2.665,-0c0.388,-0 0.703,-0.315 0.703,-0.703l-0,-1.406Z" style="fill:#fff7e3;"/></g><path d="M34.346,8.533c-0.074,0 -0.137,-0.025 -0.189,-0.076c-0.051,-0.051 -0.076,-0.114 -0.076,-0.189l-0,-6.871c-0,-0.078 0.025,-0.142 0.076,-0.194c0.052,-0.051 0.115,-0.076 0.189,-0.076l3.232,-0c0.608,-0 1.106,0.085 1.492,0.254c0.387,0.17 0.673,0.411 0.859,0.723c0.185,0.312 0.278,0.686 0.278,1.122c0,0.255 -0.048,0.479 -0.143,0.672c-0.095,0.193 -0.21,0.352 -0.346,0.477c-0.136,0.125 -0.266,0.219 -0.389,0.281c0.273,0.123 0.514,0.33 0.721,0.62c0.208,0.291 0.312,0.63 0.312,1.017c-0,0.463 -0.104,0.861 -0.312,1.196c-0.207,0.334 -0.51,0.591 -0.909,0.773c-0.398,0.181 -0.888,0.271 -1.469,0.271l-3.326,0Zm1.638,-1.375l1.476,-0c0.306,-0 0.536,-0.088 0.689,-0.264c0.154,-0.176 0.23,-0.378 0.23,-0.608c0,-0.24 -0.079,-0.446 -0.237,-0.616c-0.157,-0.17 -0.385,-0.255 -0.682,-0.255l-1.476,-0l-0,1.743Zm-0,-3.086l1.377,0c0.293,0 0.511,-0.075 0.654,-0.227c0.144,-0.151 0.216,-0.34 0.216,-0.566c0,-0.227 -0.072,-0.413 -0.216,-0.559c-0.143,-0.145 -0.361,-0.218 -0.654,-0.218l-1.377,0l-0,1.57Z" style="fill:#f1ead7;fill-rule:nonzero;"/><path d="M41.138,8.533c-0.075,0 -0.138,-0.025 -0.189,-0.076c-0.051,-0.051 -0.077,-0.114 -0.077,-0.189l0,-4.971c0,-0.075 0.026,-0.138 0.077,-0.189c0.051,-0.051 0.114,-0.077 0.189,-0.077l1.251,0c0.075,0 0.138,0.026 0.19,0.077c0.051,0.051 0.076,0.114 0.076,0.189l0,4.971c0,0.075 -0.025,0.138 -0.076,0.189c-0.052,0.051 -0.115,0.076 -0.19,0.076l-1.251,0Zm-0.01,-6.29c-0.075,0 -0.138,-0.026 -0.189,-0.077c-0.052,-0.051 -0.077,-0.114 -0.077,-0.189l-0,-0.951c-0,-0.075 0.025,-0.138 0.077,-0.191c0.051,-0.052 0.114,-0.079 0.189,-0.079l1.268,0c0.075,0 0.139,0.027 0.191,0.079c0.053,0.053 0.079,0.116 0.079,0.191l-0,0.951c-0,0.075 -0.026,0.138 -0.079,0.189c-0.052,0.051 -0.116,0.077 -0.191,0.077l-1.268,0Z" style="fill:#f1ead7;fill-rule:nonzero;"/><path d="M43.498,8.533c-0.075,0 -0.138,-0.025 -0.189,-0.076c-0.051,-0.051 -0.077,-0.114 -0.077,-0.189l-0,-4.971c-0,-0.075 0.026,-0.138 0.077,-0.189c0.051,-0.051 0.114,-0.077 0.189,-0.077l1.225,0c0.075,0 0.138,0.026 0.189,0.077c0.051,0.051 0.076,0.114 0.076,0.189l0,0.405c0.182,-0.221 0.421,-0.405 0.717,-0.554c0.295,-0.148 0.645,-0.222 1.048,-0.222c0.405,-0 0.764,0.091 1.078,0.275c0.315,0.184 0.562,0.453 0.743,0.807c0.181,0.354 0.271,0.79 0.271,1.308l0,2.952c0,0.075 -0.025,0.138 -0.076,0.189c-0.052,0.051 -0.115,0.076 -0.19,0.076l-1.33,0c-0.075,0 -0.138,-0.025 -0.189,-0.076c-0.051,-0.051 -0.077,-0.114 -0.077,-0.189l-0,-2.886c-0,-0.331 -0.08,-0.587 -0.241,-0.769c-0.16,-0.183 -0.393,-0.274 -0.697,-0.274c-0.293,0 -0.526,0.091 -0.699,0.274c-0.172,0.182 -0.258,0.438 -0.258,0.769l-0,2.886c-0,0.075 -0.026,0.138 -0.077,0.189c-0.051,0.051 -0.114,0.076 -0.189,0.076l-1.324,0Z" style="fill:#f1ead7;fill-rule:nonzero;"/><path d="M52.182,10.861c-0.544,0 -0.994,-0.07 -1.35,-0.209c-0.356,-0.14 -0.639,-0.31 -0.849,-0.509c-0.209,-0.199 -0.359,-0.396 -0.449,-0.591c-0.09,-0.195 -0.138,-0.347 -0.145,-0.458c-0.007,-0.075 0.017,-0.138 0.073,-0.191c0.056,-0.052 0.12,-0.079 0.193,-0.079l1.345,0c0.069,0 0.127,0.017 0.171,0.051c0.045,0.033 0.081,0.088 0.109,0.165c0.038,0.078 0.086,0.158 0.144,0.241c0.057,0.084 0.142,0.152 0.253,0.205c0.111,0.054 0.262,0.08 0.452,0.08c0.212,0 0.388,-0.032 0.527,-0.098c0.14,-0.066 0.246,-0.174 0.317,-0.325c0.072,-0.152 0.107,-0.355 0.107,-0.61l0,-0.71c-0.167,0.178 -0.377,0.323 -0.63,0.433c-0.253,0.11 -0.558,0.165 -0.916,0.165c-0.36,0 -0.678,-0.054 -0.953,-0.163c-0.274,-0.108 -0.504,-0.267 -0.69,-0.476c-0.185,-0.21 -0.328,-0.466 -0.431,-0.77c-0.102,-0.303 -0.161,-0.652 -0.177,-1.046c-0.007,-0.188 -0.007,-0.375 0,-0.559c0.016,-0.377 0.074,-0.718 0.174,-1.023c0.1,-0.306 0.244,-0.567 0.431,-0.783c0.188,-0.216 0.419,-0.382 0.693,-0.5c0.275,-0.117 0.593,-0.175 0.953,-0.175c0.38,-0 0.706,0.072 0.979,0.216c0.272,0.145 0.495,0.327 0.667,0.547l-0,-0.388c-0,-0.075 0.025,-0.139 0.076,-0.191c0.051,-0.052 0.114,-0.079 0.189,-0.079l1.221,0c0.075,0 0.139,0.027 0.191,0.079c0.053,0.052 0.079,0.116 0.079,0.191l0.007,5.08c-0,0.54 -0.109,0.993 -0.327,1.36c-0.218,0.367 -0.532,0.645 -0.942,0.835c-0.411,0.19 -0.908,0.285 -1.492,0.285Zm-0.075,-3.821c0.226,0 0.408,-0.049 0.547,-0.147c0.139,-0.097 0.242,-0.224 0.31,-0.38c0.068,-0.155 0.107,-0.323 0.116,-0.502c0.007,-0.075 0.011,-0.183 0.011,-0.324c-0,-0.142 -0.004,-0.248 -0.011,-0.319c-0.009,-0.179 -0.048,-0.346 -0.116,-0.502c-0.068,-0.155 -0.171,-0.282 -0.31,-0.38c-0.139,-0.098 -0.321,-0.147 -0.547,-0.147c-0.233,0 -0.418,0.05 -0.556,0.15c-0.137,0.1 -0.236,0.234 -0.295,0.402c-0.06,0.168 -0.097,0.356 -0.111,0.562c-0.011,0.158 -0.011,0.316 0,0.474c0.014,0.206 0.051,0.393 0.111,0.562c0.059,0.168 0.158,0.302 0.295,0.402c0.138,0.099 0.323,0.149 0.556,0.149Z" style="fill:#f1ead7;fill-rule:nonzero;"/><path d="M58.167,8.639c-0.834,0 -1.497,-0.226 -1.99,-0.678c-0.492,-0.453 -0.749,-1.124 -0.77,-2.013c-0.003,-0.049 -0.004,-0.11 -0.004,-0.185c-0,-0.075 0.001,-0.135 0.004,-0.179c0.022,-0.559 0.147,-1.037 0.375,-1.435c0.228,-0.398 0.545,-0.701 0.95,-0.91c0.406,-0.209 0.882,-0.313 1.429,-0.313c0.617,-0 1.129,0.123 1.536,0.371c0.408,0.247 0.714,0.583 0.918,1.007c0.205,0.425 0.307,0.906 0.307,1.444l0,0.258c0,0.075 -0.026,0.138 -0.078,0.189c-0.053,0.051 -0.117,0.077 -0.192,0.077l-3.383,-0l0,0.073c0.005,0.207 0.041,0.394 0.107,0.56c0.065,0.167 0.164,0.299 0.297,0.398c0.132,0.098 0.292,0.147 0.481,0.147c0.14,0 0.258,-0.021 0.353,-0.065c0.095,-0.043 0.175,-0.095 0.24,-0.156c0.065,-0.06 0.115,-0.112 0.15,-0.156c0.064,-0.074 0.115,-0.12 0.155,-0.137c0.04,-0.018 0.101,-0.027 0.183,-0.027l1.313,0c0.068,0 0.125,0.021 0.171,0.062c0.045,0.041 0.065,0.095 0.058,0.163c-0.007,0.121 -0.066,0.267 -0.177,0.438c-0.112,0.171 -0.275,0.338 -0.491,0.501c-0.215,0.163 -0.486,0.298 -0.811,0.406c-0.325,0.107 -0.702,0.16 -1.131,0.16Zm-0.898,-3.416l1.791,-0l-0,-0.023c-0,-0.229 -0.035,-0.427 -0.105,-0.595c-0.07,-0.167 -0.173,-0.296 -0.308,-0.387c-0.135,-0.091 -0.297,-0.137 -0.486,-0.137c-0.19,0 -0.352,0.046 -0.485,0.137c-0.134,0.091 -0.235,0.22 -0.304,0.387c-0.068,0.168 -0.103,0.366 -0.103,0.595l0,0.023Z" style="fill:#f1ead7;fill-rule:nonzero;"/><path d="M34.346,19.234c-0.074,-0 -0.137,-0.026 -0.189,-0.077c-0.051,-0.051 -0.076,-0.114 -0.076,-0.189l-0,-6.871c-0,-0.078 0.025,-0.142 0.076,-0.194c0.052,-0.051 0.115,-0.076 0.189,-0.076l3.232,-0c0.608,-0 1.106,0.085 1.492,0.254c0.387,0.17 0.673,0.411 0.859,0.723c0.185,0.312 0.278,0.686 0.278,1.122c0,0.255 -0.048,0.479 -0.143,0.672c-0.095,0.193 -0.21,0.352 -0.346,0.477c-0.136,0.125 -0.266,0.219 -0.389,0.281c0.273,0.123 0.514,0.33 0.721,0.621c0.208,0.29 0.312,0.629 0.312,1.016c-0,0.463 -0.104,0.861 -0.312,1.196c-0.207,0.334 -0.51,0.592 -0.909,0.773c-0.398,0.181 -0.888,0.272 -1.469,0.272l-3.326,-0Zm1.638,-1.376l1.476,-0c0.306,-0 0.536,-0.088 0.689,-0.264c0.154,-0.176 0.23,-0.378 0.23,-0.608c0,-0.24 -0.079,-0.446 -0.237,-0.616c-0.157,-0.17 -0.385,-0.255 -0.682,-0.255l-1.476,-0l-0,1.743Zm-0,-3.086l1.377,0c0.293,0 0.511,-0.075 0.654,-0.227c0.144,-0.151 0.216,-0.34 0.216,-0.566c0,-0.227 -0.072,-0.413 -0.216,-0.558c-0.143,-0.146 -0.361,-0.219 -0.654,-0.219l-1.377,0l-0,1.57Z" style="fill:#fcbf49;fill-rule:nonzero;"/><path d="M43.417,19.339c-0.834,0 -1.497,-0.226 -1.99,-0.678c-0.492,-0.453 -0.749,-1.124 -0.77,-2.013c-0.003,-0.049 -0.004,-0.11 -0.004,-0.185c-0,-0.075 0.001,-0.135 0.004,-0.179c0.022,-0.559 0.147,-1.037 0.375,-1.435c0.228,-0.398 0.544,-0.701 0.95,-0.91c0.406,-0.209 0.882,-0.313 1.429,-0.313c0.617,-0 1.129,0.123 1.536,0.371c0.408,0.247 0.714,0.583 0.918,1.007c0.205,0.425 0.307,0.906 0.307,1.444l0,0.258c0,0.075 -0.026,0.138 -0.078,0.189c-0.053,0.051 -0.117,0.077 -0.192,0.077l-3.383,-0l0,0.073c0.005,0.207 0.041,0.394 0.107,0.56c0.065,0.167 0.164,0.299 0.296,0.398c0.133,0.098 0.293,0.147 0.482,0.147c0.14,0 0.258,-0.021 0.353,-0.065c0.095,-0.043 0.175,-0.095 0.24,-0.156c0.065,-0.06 0.115,-0.112 0.15,-0.156c0.064,-0.074 0.115,-0.12 0.155,-0.137c0.04,-0.018 0.101,-0.027 0.183,-0.027l1.313,0c0.068,0 0.125,0.021 0.171,0.062c0.045,0.041 0.065,0.095 0.058,0.163c-0.007,0.121 -0.066,0.267 -0.178,0.438c-0.111,0.171 -0.274,0.338 -0.49,0.501c-0.215,0.163 -0.486,0.298 -0.811,0.406c-0.325,0.107 -0.702,0.16 -1.131,0.16Zm-0.898,-3.416l1.791,-0l-0,-0.023c-0,-0.229 -0.035,-0.427 -0.105,-0.595c-0.07,-0.167 -0.173,-0.296 -0.308,-0.387c-0.135,-0.091 -0.297,-0.136 -0.486,-0.136c-0.19,-0 -0.352,0.045 -0.485,0.136c-0.134,0.091 -0.235,0.22 -0.304,0.387c-0.069,0.168 -0.103,0.366 -0.103,0.595l0,0.023Z" style="fill:#fcbf49;fill-rule:nonzero;"/><path d="M46.916,19.234c-0.075,-0 -0.138,-0.026 -0.19,-0.077c-0.051,-0.051 -0.076,-0.114 -0.076,-0.189l-0,-4.971c-0,-0.075 0.025,-0.138 0.076,-0.189c0.052,-0.051 0.115,-0.077 0.19,-0.077l1.224,0c0.075,0 0.138,0.026 0.189,0.077c0.052,0.051 0.077,0.114 0.077,0.189l0,0.405c0.182,-0.221 0.421,-0.405 0.716,-0.554c0.296,-0.148 0.646,-0.222 1.049,-0.222c0.404,-0 0.764,0.091 1.078,0.275c0.314,0.184 0.562,0.453 0.743,0.807c0.181,0.354 0.271,0.79 0.271,1.308l-0,2.952c-0,0.075 -0.026,0.138 -0.077,0.189c-0.051,0.051 -0.114,0.077 -0.189,0.077l-1.33,-0c-0.075,-0 -0.138,-0.026 -0.19,-0.077c-0.051,-0.051 -0.076,-0.114 -0.076,-0.189l-0,-2.886c-0,-0.331 -0.081,-0.587 -0.241,-0.769c-0.161,-0.183 -0.393,-0.274 -0.697,-0.274c-0.294,0 -0.527,0.091 -0.699,0.274c-0.172,0.182 -0.259,0.438 -0.259,0.769l0,2.886c0,0.075 -0.025,0.138 -0.076,0.189c-0.052,0.051 -0.115,0.077 -0.19,0.077l-1.323,-0Z" style="fill:#fcbf49;fill-rule:nonzero;"/><path d="M55.427,19.339c-0.521,0 -0.982,-0.094 -1.385,-0.284c-0.403,-0.19 -0.722,-0.466 -0.957,-0.828c-0.235,-0.362 -0.364,-0.801 -0.387,-1.315c-0.007,-0.11 -0.01,-0.251 -0.01,-0.423c-0,-0.172 0.003,-0.315 0.01,-0.43c0.023,-0.517 0.151,-0.957 0.384,-1.32c0.232,-0.363 0.551,-0.64 0.957,-0.829c0.405,-0.19 0.867,-0.284 1.388,-0.284c0.488,-0 0.906,0.068 1.252,0.206c0.347,0.137 0.629,0.309 0.847,0.514c0.219,0.206 0.381,0.416 0.488,0.631c0.108,0.215 0.165,0.403 0.172,0.562c0.007,0.075 -0.018,0.138 -0.074,0.19c-0.056,0.051 -0.12,0.076 -0.192,0.076l-1.345,0c-0.075,0 -0.133,-0.018 -0.174,-0.054c-0.04,-0.036 -0.078,-0.09 -0.113,-0.161c-0.087,-0.213 -0.195,-0.367 -0.324,-0.461c-0.13,-0.095 -0.298,-0.142 -0.504,-0.142c-0.282,-0 -0.499,0.092 -0.652,0.277c-0.153,0.184 -0.235,0.467 -0.248,0.848c-0.009,0.282 -0.009,0.531 0,0.747c0.017,0.39 0.101,0.674 0.252,0.852c0.15,0.178 0.366,0.267 0.648,0.267c0.219,0 0.392,-0.047 0.517,-0.142c0.125,-0.095 0.229,-0.248 0.311,-0.461c0.031,-0.071 0.067,-0.125 0.11,-0.161c0.043,-0.036 0.102,-0.054 0.177,-0.054l1.345,-0c0.072,-0 0.136,0.025 0.192,0.076c0.056,0.051 0.081,0.115 0.074,0.189c-0.007,0.116 -0.042,0.255 -0.105,0.416c-0.063,0.162 -0.162,0.33 -0.296,0.505c-0.134,0.175 -0.308,0.337 -0.521,0.487c-0.214,0.151 -0.473,0.273 -0.777,0.366c-0.305,0.094 -0.658,0.14 -1.06,0.14Z" style="fill:#fcbf49;fill-rule:nonzero;"/><path d="M58.834,19.234c-0.075,-0 -0.138,-0.026 -0.189,-0.077c-0.051,-0.051 -0.077,-0.114 -0.077,-0.189l-0,-6.981c-0,-0.075 0.026,-0.138 0.077,-0.189c0.051,-0.051 0.114,-0.077 0.189,-0.077l1.357,-0c0.075,-0 0.138,0.026 0.189,0.077c0.051,0.051 0.077,0.114 0.077,0.189l-0,2.362c0.186,-0.22 0.418,-0.396 0.696,-0.527c0.278,-0.131 0.603,-0.196 0.975,-0.196c0.405,-0 0.768,0.091 1.089,0.275c0.321,0.184 0.574,0.453 0.759,0.807c0.185,0.354 0.278,0.79 0.278,1.308l-0,2.952c-0,0.075 -0.026,0.138 -0.077,0.189c-0.051,0.051 -0.114,0.077 -0.189,0.077l-1.364,-0c-0.074,-0 -0.138,-0.026 -0.189,-0.077c-0.051,-0.051 -0.076,-0.114 -0.076,-0.189l-0,-2.886c-0,-0.331 -0.081,-0.587 -0.241,-0.769c-0.161,-0.183 -0.393,-0.274 -0.697,-0.274c-0.294,0 -0.528,0.091 -0.702,0.274c-0.175,0.182 -0.262,0.438 -0.262,0.769l-0,2.886c-0,0.075 -0.026,0.138 -0.077,0.189c-0.051,0.051 -0.114,0.077 -0.189,0.077l-1.357,-0Z" style="fill:#fcbf49;fill-rule:nonzero;"/><path d="M65.083,19.234c-0.075,-0 -0.138,-0.026 -0.189,-0.077c-0.051,-0.051 -0.077,-0.114 -0.077,-0.189l0,-4.971c0,-0.075 0.026,-0.138 0.077,-0.189c0.051,-0.051 0.114,-0.077 0.189,-0.077l1.159,0c0.075,0 0.138,0.026 0.189,0.077c0.051,0.051 0.077,0.114 0.077,0.189l-0,0.357c0.141,-0.186 0.337,-0.352 0.59,-0.497c0.252,-0.145 0.551,-0.223 0.896,-0.231c0.817,-0.018 1.377,0.287 1.68,0.915c0.162,-0.268 0.395,-0.488 0.698,-0.659c0.303,-0.171 0.632,-0.256 0.989,-0.256c0.365,-0 0.695,0.083 0.99,0.249c0.296,0.166 0.531,0.421 0.706,0.764c0.175,0.343 0.262,0.784 0.262,1.322l0,3.007c0,0.075 -0.025,0.138 -0.076,0.189c-0.052,0.051 -0.115,0.077 -0.19,0.077l-1.231,-0c-0.075,-0 -0.138,-0.026 -0.189,-0.077c-0.051,-0.051 -0.077,-0.114 -0.077,-0.189l0,-2.934c0,-0.245 -0.036,-0.44 -0.108,-0.585c-0.073,-0.145 -0.168,-0.25 -0.288,-0.314c-0.119,-0.064 -0.255,-0.096 -0.408,-0.096c-0.132,0 -0.259,0.032 -0.381,0.096c-0.122,0.064 -0.219,0.169 -0.293,0.314c-0.075,0.145 -0.112,0.34 -0.112,0.585l0,2.934c0,0.075 -0.025,0.138 -0.076,0.189c-0.051,0.051 -0.114,0.077 -0.189,0.077l-1.232,-0c-0.075,-0 -0.138,-0.026 -0.189,-0.077c-0.051,-0.051 -0.077,-0.114 -0.077,-0.189l0,-2.934c0,-0.245 -0.037,-0.44 -0.112,-0.585c-0.075,-0.145 -0.172,-0.25 -0.292,-0.314c-0.119,-0.064 -0.253,-0.096 -0.4,-0.096c-0.132,0 -0.259,0.033 -0.381,0.1c-0.121,0.066 -0.22,0.17 -0.297,0.313c-0.076,0.143 -0.114,0.336 -0.114,0.578l-0,2.938c-0,0.075 -0.026,0.138 -0.077,0.189c-0.051,0.051 -0.114,0.077 -0.189,0.077l-1.258,-0Z" style="fill:#fcbf49;fill-rule:nonzero;"/><path d="M75.761,19.339c-0.378,0 -0.718,-0.072 -1.019,-0.218c-0.301,-0.145 -0.539,-0.342 -0.713,-0.589c-0.174,-0.247 -0.261,-0.526 -0.261,-0.835c-0,-0.502 0.204,-0.899 0.611,-1.19c0.408,-0.292 0.949,-0.491 1.623,-0.597l1.328,-0.2l-0,-0.145c-0,-0.255 -0.053,-0.45 -0.159,-0.583c-0.106,-0.134 -0.299,-0.2 -0.579,-0.2c-0.2,-0 -0.36,0.039 -0.483,0.117c-0.122,0.079 -0.221,0.184 -0.297,0.315c-0.061,0.088 -0.148,0.132 -0.26,0.132l-1.188,0c-0.076,0 -0.134,-0.022 -0.176,-0.065c-0.042,-0.044 -0.061,-0.1 -0.057,-0.168c0.005,-0.12 0.054,-0.265 0.148,-0.433c0.094,-0.168 0.239,-0.332 0.436,-0.492c0.197,-0.16 0.451,-0.294 0.762,-0.401c0.311,-0.108 0.687,-0.161 1.128,-0.161c0.456,-0 0.846,0.053 1.17,0.159c0.325,0.106 0.588,0.254 0.791,0.442c0.202,0.189 0.351,0.414 0.448,0.674c0.096,0.261 0.145,0.543 0.145,0.847l-0,3.22c-0,0.075 -0.026,0.138 -0.077,0.189c-0.051,0.051 -0.114,0.077 -0.189,0.077l-1.225,-0c-0.075,-0 -0.138,-0.026 -0.189,-0.077c-0.051,-0.051 -0.077,-0.114 -0.077,-0.189l0,-0.372c-0.093,0.136 -0.216,0.259 -0.369,0.371c-0.153,0.112 -0.335,0.201 -0.545,0.27c-0.211,0.068 -0.453,0.102 -0.727,0.102Zm0.496,-1.209c0.21,0 0.397,-0.044 0.561,-0.132c0.165,-0.088 0.294,-0.226 0.389,-0.412c0.095,-0.187 0.142,-0.422 0.142,-0.703l0,-0.141l-0.902,0.157c-0.331,0.056 -0.572,0.141 -0.723,0.257c-0.151,0.115 -0.226,0.251 -0.226,0.408c-0,0.118 0.035,0.22 0.105,0.304c0.07,0.084 0.163,0.149 0.278,0.194c0.116,0.046 0.241,0.068 0.376,0.068Z" style="fill:#fcbf49;fill-rule:nonzero;"/><path d="M80.045,19.234c-0.075,-0 -0.138,-0.026 -0.189,-0.077c-0.051,-0.051 -0.077,-0.114 -0.077,-0.189l0,-4.967c0,-0.075 0.026,-0.138 0.077,-0.191c0.051,-0.052 0.114,-0.079 0.189,-0.079l1.221,0c0.075,0 0.138,0.027 0.191,0.079c0.052,0.053 0.079,0.116 0.079,0.191l-0,0.414c0.188,-0.216 0.415,-0.384 0.679,-0.504c0.264,-0.12 0.561,-0.18 0.892,-0.18l0.464,0c0.075,0 0.138,0.026 0.189,0.077c0.051,0.051 0.077,0.114 0.077,0.189l-0,1.087c-0,0.075 -0.026,0.138 -0.077,0.19c-0.051,0.051 -0.114,0.076 -0.189,0.076l-1.024,0c-0.291,0 -0.515,0.08 -0.674,0.238c-0.159,0.159 -0.238,0.384 -0.238,0.675l-0,2.705c-0,0.075 -0.026,0.138 -0.079,0.189c-0.052,0.051 -0.116,0.077 -0.191,0.077l-1.32,-0Z" style="fill:#fcbf49;fill-rule:nonzero;"/><path d="M83.731,19.234c-0.075,-0 -0.138,-0.026 -0.189,-0.077c-0.051,-0.051 -0.077,-0.114 -0.077,-0.189l0,-6.981c0,-0.075 0.026,-0.138 0.077,-0.189c0.051,-0.051 0.114,-0.077 0.189,-0.077l1.225,-0c0.075,-0 0.138,0.026 0.189,0.077c0.051,0.051 0.077,0.114 0.077,0.189l-0,3.547l1.467,-1.623c0.045,-0.047 0.092,-0.088 0.14,-0.125c0.048,-0.036 0.121,-0.055 0.218,-0.055l1.411,0c0.068,0 0.125,0.023 0.17,0.068c0.046,0.046 0.068,0.103 0.068,0.17c0,0.029 -0.006,0.06 -0.02,0.094c-0.013,0.035 -0.034,0.063 -0.064,0.085l-1.91,2.051l2.174,2.631c0.052,0.058 0.078,0.113 0.078,0.165c0,0.068 -0.022,0.125 -0.068,0.17c-0.045,0.046 -0.102,0.069 -0.17,0.069l-1.452,-0c-0.106,-0 -0.183,-0.02 -0.231,-0.06c-0.048,-0.04 -0.095,-0.08 -0.141,-0.12l-1.67,-2.009l-0,1.923c-0,0.075 -0.026,0.138 -0.077,0.189c-0.051,0.051 -0.114,0.077 -0.189,0.077l-1.225,-0Z" style="fill:#fcbf49;fill-rule:nonzero;"/></g></svg>