<svg width="100%" height="100%" viewBox="0 0 19 19" fill="none" xmlns="http://www.w3.org/2000/svg">
<path fill-rule="evenodd" clip-rule="evenodd" d="M1.6 9.0653C1.6 4.94233 4.94233 1.6 9.0653 1.6C13.1883 1.6 16.5306 4.94233 16.5306 9.0653C16.5306 13.1883 13.1883 16.5306 9.0653 16.5306C4.94233 16.5306 1.6 13.1883 1.6 9.0653ZM9.0653 0C4.05867 0 0 4.05867 0 9.0653C0 14.0719 4.05867 18.1306 9.0653 18.1306C14.0719 18.1306 18.1306 14.0719 18.1306 9.0653C18.1306 4.05867 14.0719 0 9.0653 0ZM13.7537 6.35377C14.0395 5.94704 13.9414 5.3857 13.5346 5.09998C13.1279 4.81425 12.5666 4.91235 12.2808 5.31907L7.86257 11.6085L5.79451 9.41467C5.45356 9.05298 4.88396 9.03617 4.52227 9.37712C4.16059 9.71807 4.14378 10.2877 4.48473 10.6494L7.30977 13.6462C7.49527 13.843 7.75944 13.9459 8.02918 13.9265C8.29892 13.9071 8.54565 13.7675 8.7011 13.5462L13.7537 6.35377Z"/>
</svg>
