<svg width="100%" height="100%" viewBox="0 0 19 19" fill="none" xmlns="http://www.w3.org/2000/svg">
<path fill-rule="evenodd" clip-rule="evenodd" d="M1.6 9.0653C1.6 4.94233 4.94233 1.6 9.0653 1.6C13.1883 1.6 16.5306 4.94233 16.5306 9.0653C16.5306 13.1883 13.1883 16.5306 9.0653 16.5306C4.94233 16.5306 1.6 13.1883 1.6 9.0653ZM9.0653 0C4.05867 0 0 4.05867 0 9.0653C0 14.0719 4.05867 18.1306 9.0653 18.1306C14.0719 18.1306 18.1306 14.0719 18.1306 9.0653C18.1306 4.05867 14.0719 0 9.0653 0ZM4.99902 8C4.44674 8 3.99902 8.44771 3.99902 9C3.99902 9.55229 4.44674 10 4.99902 10H12.999C13.5513 10 13.999 9.55229 13.999 9C13.999 8.44771 13.5513 8 12.999 8H4.99902Z" />
</svg>
