<?xml version="1.0" encoding="UTF-8" standalone="no"?><!DOCTYPE svg PUBLIC "-//W3C//DTD SVG 1.1//EN" "http://www.w3.org/Graphics/SVG/1.1/DTD/svg11.dtd"><svg width="100%" height="100%" viewBox="0 0 96 96" version="1.1" xmlns="http://www.w3.org/2000/svg" xmlns:xlink="http://www.w3.org/1999/xlink" xml:space="preserve" xmlns:serif="http://www.serif.com/" style="fill-rule:evenodd;clip-rule:evenodd;stroke-linejoin:round;stroke-miterlimit:2;"><g><path d="M48,14.949c-18.242,-0 -33.051,14.809 -33.051,33.051c-0,18.242 14.809,33.051 33.051,33.051c18.242,0 33.051,-14.809 33.051,-33.051c0,-18.242 -14.809,-33.051 -33.051,-33.051Zm0,6c14.93,-0 27.051,12.121 27.051,27.051c0,14.93 -12.121,27.051 -27.051,27.051c-14.93,0 -27.051,-12.121 -27.051,-27.051c-0,-14.93 12.121,-27.051 27.051,-27.051Zm-15.997,31.928l10.604,11.35c0.632,0.676 1.54,1.023 2.461,0.94c0.921,-0.083 1.753,-0.586 2.254,-1.364l16.667,-25.883c0.896,-1.392 0.494,-3.25 -0.898,-4.146c-1.392,-0.897 -3.25,-0.494 -4.147,0.898l-14.582,22.645c0,-0 -7.975,-8.537 -7.975,-8.537c-1.13,-1.209 -3.03,-1.274 -4.24,-0.144c-1.21,1.131 -1.275,3.031 -0.144,4.241Z"/></g></svg>