<svg width="100%" height="100%" viewBox="0 0 256 256" version="1.1" xmlns="http://www.w3.org/2000/svg" xmlns:xlink="http://www.w3.org/1999/xlink" xml:space="preserve" xmlns:serif="http://www.serif.com/" style="fill-rule:evenodd;clip-rule:evenodd;stroke-linejoin:round;stroke-miterlimit:2;"><path d="M127.241,122.735c0.482,0.222 1.036,0.222 1.518,-0l119.086,-55.005c0.641,-0.296 1.051,-0.937 1.051,-1.643l0,-9.492c0,-9.431 -7.643,-17.074 -17.074,-17.074c0,-0 -207.644,-0 -207.644,-0c-9.431,-0.003 -17.074,7.64 -17.074,17.071c-0,0 -0,9.493 -0,9.493c-0,0.705 0.41,1.347 1.051,1.643l119.086,55.007Z" style="fill-rule:nonzero;"/><path d="M128,147.186l-118.328,-54.656c-0.56,-0.259 -1.214,-0.215 -1.734,0.118c-0.52,0.332 -0.834,0.907 -0.834,1.524l-0,105.233c-0,9.431 7.643,17.074 17.074,17.074c-0,0 207.644,0 207.644,0c9.431,0 17.074,-7.643 17.074,-17.074l0,-105.233c0,-0.617 -0.314,-1.192 -0.834,-1.524c-0.52,-0.333 -1.174,-0.377 -1.734,-0.118l-118.328,54.656Z" style="fill-rule:nonzero;"/></svg>