<?xml version="1.0" encoding="UTF-8" standalone="no"?><!DOCTYPE svg PUBLIC "-//W3C//DTD SVG 1.1//EN" "http://www.w3.org/Graphics/SVG/1.1/DTD/svg11.dtd"><svg width="100%" height="100%" viewBox="0 0 96 96" version="1.1" xmlns="http://www.w3.org/2000/svg" xmlns:xlink="http://www.w3.org/1999/xlink" xml:space="preserve" xmlns:serif="http://www.serif.com/" style="fill-rule:evenodd;clip-rule:evenodd;stroke-linejoin:round;stroke-miterlimit:2;"><g><path d="M48,14.949c-18.242,-0 -33.051,14.809 -33.051,33.051c-0,18.242 14.809,33.051 33.051,33.051c18.242,0 33.051,-14.809 33.051,-33.051c0,-18.242 -14.809,-33.051 -33.051,-33.051Zm0,6c14.93,-0 27.051,12.121 27.051,27.051c0,14.93 -12.121,27.051 -27.051,27.051c-14.93,0 -27.051,-12.121 -27.051,-27.051c-0,-14.93 12.121,-27.051 27.051,-27.051Zm-0.281,44.793c-0.953,0 -1.785,-0.308 -2.496,-0.926c-0.711,-0.617 -1.067,-1.48 -1.067,-2.589c0,-0.985 0.344,-1.813 1.032,-2.485c0.687,-0.672 1.531,-1.008 2.531,-1.008c0.984,0 1.812,0.336 2.484,1.008c0.672,0.672 1.008,1.5 1.008,2.485c-0,1.093 -0.352,1.953 -1.055,2.578c-0.703,0.625 -1.515,0.937 -2.437,0.937Zm-11.438,-25.687c0,-1.485 0.477,-2.989 1.43,-4.512c0.953,-1.523 2.344,-2.785 4.172,-3.785c1.828,-1 3.961,-1.5 6.398,-1.5c2.266,-0 4.266,0.418 6,1.254c1.735,0.836 3.074,1.972 4.02,3.41c0.945,1.437 1.418,3 1.418,4.687c-0,1.329 -0.27,2.493 -0.809,3.493c-0.539,1 -1.18,1.863 -1.922,2.589c-0.742,0.727 -2.074,1.95 -3.996,3.668c-0.531,0.485 -0.957,0.911 -1.277,1.278c-0.32,0.367 -0.559,0.703 -0.715,1.008c-0.156,0.304 -0.277,0.609 -0.363,0.914c-0.086,0.304 -0.215,0.839 -0.387,1.605c-0.297,1.625 -1.227,2.438 -2.789,2.438c-0.813,-0 -1.496,-0.266 -2.051,-0.797c-0.555,-0.532 -0.832,-1.321 -0.832,-2.367c0,-1.313 0.203,-2.45 0.609,-3.411c0.407,-0.961 0.946,-1.804 1.618,-2.531c0.672,-0.726 1.578,-1.59 2.718,-2.59c1,-0.875 1.723,-1.535 2.168,-1.98c0.446,-0.446 0.821,-0.942 1.125,-1.489c0.305,-0.546 0.457,-1.14 0.457,-1.781c0,-1.25 -0.464,-2.304 -1.394,-3.164c-0.93,-0.859 -2.129,-1.289 -3.598,-1.289c-1.719,0 -2.984,0.434 -3.797,1.301c-0.812,0.867 -1.5,2.144 -2.062,3.832c-0.531,1.766 -1.539,2.648 -3.024,2.648c-0.875,0 -1.613,-0.308 -2.214,-0.925c-0.602,-0.618 -0.903,-1.286 -0.903,-2.004Z"/></g></svg>