<?xml version="1.0" encoding="UTF-8" standalone="no"?><!DOCTYPE svg PUBLIC "-//W3C//DTD SVG 1.1//EN" "http://www.w3.org/Graphics/SVG/1.1/DTD/svg11.dtd"><svg width="100%" height="100%" viewBox="0 0 96 96" version="1.1" xmlns="http://www.w3.org/2000/svg" xmlns:xlink="http://www.w3.org/1999/xlink" xml:space="preserve" xmlns:serif="http://www.serif.com/" style="fill-rule:evenodd;clip-rule:evenodd;stroke-linejoin:round;stroke-miterlimit:2;"><g><path d="M48,14.949c-18.242,-0 -33.051,14.809 -33.051,33.051c-0,18.242 14.809,33.051 33.051,33.051c18.242,0 33.051,-14.809 33.051,-33.051c0,-18.242 -14.809,-33.051 -33.051,-33.051Zm0,6c14.93,-0 27.051,12.121 27.051,27.051c0,14.93 -12.121,27.051 -27.051,27.051c-14.93,0 -27.051,-12.121 -27.051,-27.051c-0,-14.93 12.121,-27.051 27.051,-27.051Zm0,22.808l-8.423,-8.423c-1.171,-1.171 -3.072,-1.171 -4.243,0c-1.171,1.171 -1.171,3.072 0,4.243l8.423,8.423l-8.423,8.423c-1.171,1.171 -1.171,3.072 0,4.243c1.171,1.171 3.072,1.171 4.243,-0l8.423,-8.423l8.423,8.423c1.171,1.171 3.072,1.171 4.243,-0c1.171,-1.171 1.171,-3.072 -0,-4.243l-8.423,-8.423l8.423,-8.423c1.171,-1.171 1.171,-3.072 -0,-4.243c-1.171,-1.171 -3.072,-1.171 -4.243,0l-8.423,8.423Z"/></g></svg>