<?xml version="1.0" encoding="UTF-8" standalone="no"?><!DOCTYPE svg PUBLIC "-//W3C//DTD SVG 1.1//EN" "http://www.w3.org/Graphics/SVG/1.1/DTD/svg11.dtd"><svg width="100%" height="100%" viewBox="0 0 96 96" version="1.1" xmlns="http://www.w3.org/2000/svg" xmlns:xlink="http://www.w3.org/1999/xlink" xml:space="preserve" xmlns:serif="http://www.serif.com/" style="fill-rule:evenodd;clip-rule:evenodd;stroke-linejoin:round;stroke-miterlimit:2;"><g><path d="M57.375,61.381l19.408,19.407c1.17,1.171 3.071,1.171 4.242,0c1.171,-1.171 1.171,-3.072 0,-4.243l-19.407,-19.407c8.527,-10.642 7.858,-26.24 -2.005,-36.103c-10.58,-10.58 -27.76,-10.58 -38.341,0l0,0c-10.58,10.581 -10.58,27.761 0,38.341c9.863,9.863 25.461,10.532 36.103,2.005Zm-31.86,-36.103c8.239,-8.239 21.617,-8.239 29.855,-0c8.239,8.239 8.239,21.616 0,29.855c-8.238,8.239 -21.616,8.239 -29.855,0c-8.239,-8.239 -8.239,-21.616 -0,-29.855l-0,-0Z"/></g></svg>