<?xml version="1.0" encoding="UTF-8" standalone="no"?><!DOCTYPE svg PUBLIC "-//W3C//DTD SVG 1.1//EN" "http://www.w3.org/Graphics/SVG/1.1/DTD/svg11.dtd"><svg width="100%" height="100%" viewBox="0 0 96 96" version="1.1" xmlns="http://www.w3.org/2000/svg" xmlns:xlink="http://www.w3.org/1999/xlink" xml:space="preserve" xmlns:serif="http://www.serif.com/" style="fill-rule:evenodd;clip-rule:evenodd;stroke-linejoin:round;stroke-miterlimit:2;"><g><path d="M45.65,12.348c0.368,-0.979 1.304,-1.628 2.35,-1.628c1.046,0 1.982,0.649 2.35,1.628l8.524,22.697l24.221,1.094c1.045,0.047 1.951,0.737 2.274,1.732c0.323,0.994 -0.004,2.085 -0.822,2.737l-18.952,15.121l6.444,23.374c0.278,1.008 -0.098,2.083 -0.944,2.697c-0.846,0.615 -1.984,0.641 -2.857,0.065l-20.238,-13.352l-20.238,13.352c-0.873,0.576 -2.011,0.55 -2.857,-0.065c-0.846,-0.614 -1.222,-1.689 -0.944,-2.697l6.444,-23.374l-18.952,-15.121c-0.818,-0.652 -1.145,-1.743 -0.822,-2.737c0.323,-0.995 1.229,-1.685 2.274,-1.732l24.221,-1.094l8.524,-22.697Z"/></g></svg>