<svg width="100%" height="100%" viewBox="0 0 19 19" fill="none" xmlns="http://www.w3.org/2000/svg">
<path fill-rule="evenodd" clip-rule="evenodd" d="M9.0653 1.6C4.94233 1.6 1.6 4.94233 1.6 9.0653C1.6 13.1883 4.94233 16.5306 9.0653 16.5306C13.1883 16.5306 16.5306 13.1883 16.5306 9.0653C16.5306 4.94233 13.1883 1.6 9.0653 1.6ZM0 9.0653C0 4.05867 4.05867 0 9.0653 0C14.0719 0 18.1306 4.05867 18.1306 9.0653C18.1306 14.0719 14.0719 18.1306 9.0653 18.1306C4.05867 18.1306 0 14.0719 0 9.0653ZM5.89124 12.3588C5.50072 11.9682 5.50072 11.3351 5.89124 10.9445L7.83579 9L5.89124 7.05546C5.50072 6.66493 5.50072 6.03177 5.89124 5.64124C6.28177 5.25072 6.91493 5.25072 7.30546 5.64124L9.25 7.58579L11.1945 5.64124C11.5851 5.25072 12.2182 5.25072 12.6088 5.64124C12.9993 6.03177 12.9993 6.66493 12.6088 7.05546L10.6642 9L12.6088 10.9445C12.9993 11.3351 12.9993 11.9682 12.6088 12.3588C12.2182 12.7493 11.5851 12.7493 11.1945 12.3588L9.25 10.4142L7.30546 12.3588C6.91493 12.7493 6.28177 12.7493 5.89124 12.3588Z" />
</svg>
