<svg width="100%" height="100%" viewBox="0 0 19 19" fill="none" xmlns="http://www.w3.org/2000/svg">
<path fill-rule="evenodd" clip-rule="evenodd" d="M1.6 9.0653C1.6 4.94233 4.94233 1.6 9.0653 1.6C13.1883 1.6 16.5306 4.94233 16.5306 9.0653C16.5306 13.1883 13.1883 16.5306 9.0653 16.5306C4.94233 16.5306 1.6 13.1883 1.6 9.0653ZM9.0653 0C4.05867 0 0 4.05867 0 9.0653C0 14.0719 4.05867 18.1306 9.0653 18.1306C14.0719 18.1306 18.1306 14.0719 18.1306 9.0653C18.1306 4.05867 14.0719 0 9.0653 0ZM9.49902 11.078C9.40332 11.2102 9.24382 11.2762 9.02051 11.2762C8.79264 11.2762 8.62175 11.2033 8.50781 11.0575C8.39844 10.9117 8.34375 10.7316 8.34375 10.5175V10.4354V10.3466C8.34375 10.0458 8.3916 9.7769 8.4873 9.53992C8.58757 9.30294 8.73568 9.08419 8.93164 8.88367C9.13216 8.68315 9.38281 8.49402 9.68359 8.31628C9.95247 8.14766 10.1689 7.98588 10.333 7.83093C10.4971 7.67143 10.6133 7.50281 10.6816 7.32507C10.7546 7.14734 10.791 6.94454 10.791 6.71667C10.791 6.43412 10.7249 6.18803 10.5928 5.97839C10.4606 5.7642 10.276 5.59786 10.0391 5.47937C9.80208 5.36088 9.52409 5.30164 9.20508 5.30164C8.77669 5.30164 8.42122 5.40645 8.13867 5.61609C7.86068 5.82117 7.66699 6.11739 7.55762 6.50476C7.48926 6.71895 7.40495 6.86707 7.30469 6.9491C7.20898 7.03113 7.07682 7.07214 6.9082 7.07214C6.7168 7.07214 6.56641 7.01746 6.45703 6.90808C6.35221 6.79415 6.2998 6.6392 6.2998 6.44324C6.2998 6.2974 6.31348 6.16296 6.34082 6.03992C6.37272 5.91231 6.42057 5.78243 6.48438 5.65027C6.6849 5.17175 7.02897 4.79806 7.5166 4.52917C8.00879 4.26029 8.58984 4.12585 9.25977 4.12585C9.8431 4.12585 10.3581 4.23295 10.8047 4.44714C11.2513 4.66134 11.5999 4.95984 11.8506 5.34265C12.1058 5.72091 12.2334 6.15841 12.2334 6.65515C12.2334 7.18835 12.1058 7.64408 11.8506 8.02234C11.5999 8.39604 11.249 8.71733 10.7979 8.98621C10.5107 9.15483 10.2852 9.31433 10.1211 9.46472C9.96159 9.61511 9.84766 9.7769 9.7793 9.95007C9.71094 10.1187 9.67448 10.3192 9.66992 10.5516C9.65625 10.7704 9.59928 10.9458 9.49902 11.078ZM9.62891 13.9149C9.46484 14.0744 9.26204 14.1542 9.02051 14.1542C8.78353 14.1542 8.58073 14.0744 8.41211 13.9149C8.24805 13.7509 8.16602 13.5503 8.16602 13.3134C8.16602 13.0718 8.24805 12.8713 8.41211 12.7118C8.58073 12.5523 8.78353 12.4725 9.02051 12.4725C9.26204 12.4725 9.46484 12.5523 9.62891 12.7118C9.79297 12.8713 9.875 13.0718 9.875 13.3134C9.875 13.5503 9.79297 13.7509 9.62891 13.9149Z" />
</svg>
